<?xml version="1.0" encoding="UTF-8"?>
<svg width="1536px" height="1536px" viewBox="0 0 1536 1536" version="1.1" xmlns="http://www.w3.org/2000/svg" xmlns:xlink="http://www.w3.org/1999/xlink">
    <!-- Generator: Sketch 49.3 (51167) - http://www.bohemiancoding.com/sketch -->
    <title>facebook</title>
    <desc>Created with Sketch.</desc>
    <defs></defs>
    <g id="Page-1" stroke="none" stroke-width="1" fill="none" fill-rule="evenodd">
        <g id="facebook" fill="#FFFFFF" fill-rule="nonzero">
            <path d="M1248,0 C1327.33333,0 1395.16667,28.1666667 1451.5,84.5 C1507.83333,140.833333 1536,208.666667 1536,288 L1536,1248 C1536,1327.33333 1507.83333,1395.16667 1451.5,1451.5 C1395.16667,1507.83333 1327.33333,1536 1248,1536 L1060,1536 L1060,941 L1259,941 L1289,709 L1060,709 L1060,561 C1060,523.666667 1067.83333,495.666667 1083.5,477 C1099.16667,458.333333 1129.66667,449 1175,449 L1297,448 L1297,241 C1255,235 1195.66667,232 1119,232 C1028.33333,232 955.833333,258.666667 901.5,312 C847.166667,365.333333 820,440.666667 820,538 L820,709 L620,709 L620,941 L820,941 L820,1536 L288,1536 C208.666667,1536 140.833333,1507.83333 84.5,1451.5 C28.1666667,1395.16667 0,1327.33333 0,1248 L0,288 C0,208.666667 28.1666667,140.833333 84.5,84.5 C140.833333,28.1666667 208.666667,0 288,0 L1248,0 Z" id="Shape"></path>
        </g>
    </g>
</svg>