<?xml version="1.0" encoding="UTF-8"?>
<svg width="1536px" height="1536px" viewBox="0 0 1536 1536" version="1.1" xmlns="http://www.w3.org/2000/svg" xmlns:xlink="http://www.w3.org/1999/xlink">
    <!-- Generator: Sketch 49.3 (51167) - http://www.bohemiancoding.com/sketch -->
    <title>linkedin</title>
    <desc>Created with Sketch.</desc>
    <defs></defs>
    <g id="Page-1" stroke="none" stroke-width="1" fill="none" fill-rule="evenodd">
        <g id="linkedin" fill="#FFFFFF" fill-rule="nonzero">
            <path d="M237,1286 L468,1286 L468,592 L237,592 L237,1286 Z M483,378 C482.333333,343.333333 470.333333,314.666667 447,292 C423.666667,269.333333 392.666667,258 354,258 C315.333333,258 283.833333,269.333333 259.5,292 C235.166667,314.666667 223,343.333333 223,378 C223,412 234.833333,440.5 258.5,463.5 C282.166667,486.5 313,498 351,498 L352,498 C391.333333,498 423,486.5 447,463.5 C471,440.5 483,412 483,378 Z M1068,1286 L1299,1286 L1299,888 C1299,785.333333 1274.66667,707.666667 1226,655 C1177.33333,602.333333 1113,576 1033,576 C942.333333,576 872.666667,615 824,693 L826,693 L826,592 L595,592 C597,636 597,867.333333 595,1286 L826,1286 L826,898 C826,872.666667 828.333333,854 833,842 C843,818.666667 858,798.833333 878,782.5 C898,766.166667 922.666667,758 952,758 C1029.33333,758 1068,810.333333 1068,915 L1068,1286 Z M1536,288 L1536,1248 C1536,1327.33333 1507.83333,1395.16667 1451.5,1451.5 C1395.16667,1507.83333 1327.33333,1536 1248,1536 L288,1536 C208.666667,1536 140.833333,1507.83333 84.5,1451.5 C28.1666667,1395.16667 0,1327.33333 0,1248 L0,288 C0,208.666667 28.1666667,140.833333 84.5,84.5 C140.833333,28.1666667 208.666667,0 288,0 L1248,0 C1327.33333,0 1395.16667,28.1666667 1451.5,84.5 C1507.83333,140.833333 1536,208.666667 1536,288 Z" id="Shape"></path>
        </g>
    </g>
</svg>